<svg id="Calque_1" data-name="Calque 1" xmlns="http://www.w3.org/2000/svg" viewBox="0 0 328.19 334.62"><title>logots</title><path d="M301.12,611.29l-27.78,57.36a6.25,6.25,0,0,1-5.63,3.54H252a6.26,6.26,0,0,1-5.63-9l33.23-68.09a6.24,6.24,0,0,1,10.28-1.44q4.69,5.4,9.87,10.32A6.3,6.3,0,0,1,301.12,611.29Z" transform="translate(-245.71 -337.56)"/><path d="M518.8,550.19a123.19,123.19,0,0,0,15.76-67C531.42,420,480,368.82,416.77,366a123.63,123.63,0,1,0,47.14,235.3L392.73,454.78a6.26,6.26,0,0,0-11.26,0l-50.29,104A6.28,6.28,0,0,1,320.71,560,124.57,124.57,0,0,1,311,546.75a6.22,6.22,0,0,1-.3-6l72.24-148.17a6.26,6.26,0,0,1,11.28.06l92.54,194.66,12.39,26L522.39,663a6.25,6.25,0,0,1-5.55,8.94l-14.9.23a6.24,6.24,0,0,1-5.72-3.52l-20-41.92a151.93,151.93,0,1,1-67.64-289.16c83.41-1.32,153,66,154.35,149.41a151.28,151.28,0,0,1-29.85,93l40.14,83.25a6.26,6.26,0,0,1-5.63,9H549.19a6.26,6.26,0,0,1-5.67-3.61l-31-66-12.65-27.05L441.41,450.57a6.26,6.26,0,0,1,3.47-8.52l13.19-4.93a6.25,6.25,0,0,1,7.83,3.14Z" transform="translate(-245.71 -337.56)"/></svg>